<?xml version="1.0" encoding="UTF-8"?>
<svg width="344px" height="263px" viewBox="0 0 344 263" version="1.1" xmlns="http://www.w3.org/2000/svg" xmlns:xlink="http://www.w3.org/1999/xlink">
    <title>形状</title>
    <g id="AntDesign-Pro-4.0" stroke="none" stroke-width="1" fill="none" fill-rule="evenodd">
        <g id="haha" transform="translate(-454.000000, -256.000000)" fill="#FFFFFF">
            <g id="logo" transform="translate(426.000000, 163.000000)">
                <path d="M28.5723047,159.330469 L70.0613281,117.017578 C70.2308594,116.844531 70.4386719,116.713281 70.6675781,116.634766 L138.186719,93.44375 C138.2625,93.4179688 138.339453,93.3976563 138.417578,93.3839844 C138.497656,93.3695313 138.578516,93.359375 138.660156,93.359375 C138.670703,93.359375 138.681641,93.359375 138.692187,93.359375 L259.342188,93.359375 C259.519922,93.359375 259.696094,93.3898438 259.863672,93.4496094 L325.046484,116.647266 C325.245312,116.717969 325.427734,116.828516 325.582422,116.971875 L371.355078,159.337891 C371.976562,159.913281 372.026953,160.880469 371.467969,161.517188 L202.165625,354.532031 C202.088281,354.620313 202.003516,354.697656 201.913281,354.763672 C201.852344,354.808203 201.789062,354.847656 201.723828,354.882422 C201.274219,355.120703 200.73125,355.123438 200.279297,354.889453 C200.269141,354.883984 200.258984,354.878906 200.248828,354.873047 C200.095313,354.789453 199.953516,354.678125 199.830078,354.538672 L28.5192578,161.463672 C27.9741016,160.849609 27.9973047,159.916797 28.5723047,159.330469 Z M157.644141,122.265625 C153.329297,122.265625 149.831641,125.763281 149.831641,130.078125 L149.831641,197.341016 C149.318359,197.272656 148.837109,197.205078 148.388672,197.139063 C146.921484,196.923828 145.80625,196.727344 145.068359,196.5875 C144.699219,196.517578 144.424609,196.461719 144.247266,196.424609 C144.158594,196.405859 144.094531,196.391797 144.055078,196.383203 L144.014453,196.374219 L144.009766,196.373047 C144.010547,196.373438 136.988672,194.624609 136.205469,198.034375 C135.421875,201.444531 142.445703,203.19375 142.446875,203.194141 L142.457422,203.196484 L142.479297,203.201172 C142.497266,203.205469 142.521484,203.210547 142.551953,203.217578 C142.612891,203.230859 142.698828,203.249609 142.809375,203.272656 C143.030078,203.319141 143.349609,203.383984 143.764453,203.4625 C144.594141,203.619922 145.805078,203.832422 147.371875,204.0625 C148.112891,204.171094 148.933594,204.283984 149.831641,204.396875 L149.831641,268.272266 C149.831641,272.587109 153.329297,276.084766 157.644141,276.084766 L160.310938,276.084766 C164.625781,276.084766 168.123438,272.587109 168.123438,268.272266 L168.123438,205.584375 C178.923047,205.709766 192.696875,204.934766 208.590625,201.999609 C216.175781,200.598828 222.741016,198.859766 228.403906,196.955078 L228.403906,268.272266 C228.403906,272.587109 231.901953,276.084766 236.216406,276.084766 L238.883594,276.084766 C243.198437,276.084766 246.696094,272.587109 246.696094,268.272266 L246.696094,188.763672 C247.604297,188.226172 248.460938,187.69375 249.267969,187.16875 C251.822266,185.507813 253.871484,183.930859 255.485938,182.541797 L258.337891,199.608594 C258.707422,201.505469 260.733594,202.841797 262.630078,202.472266 C264.526953,202.102734 265.713672,200.520313 265.344141,198.623438 L261.072266,174.623047 C260.703125,172.726172 258.866016,171.488281 256.969141,171.857813 L246.696094,173.858984 L246.696094,130.078125 C246.696094,125.763281 243.198437,122.265625 238.883594,122.265625 L236.216406,122.265625 C231.901953,122.265625 228.403906,125.763281 228.403906,130.078125 L228.403906,177.422266 L226.061328,177.878906 C224.164453,178.248438 222.926563,180.085547 223.296094,181.982031 C223.665234,183.878906 225.502344,185.116797 227.399219,184.747266 L228.403906,184.551563 L228.403906,189.546094 C222.597266,191.638281 215.630078,193.583594 207.319922,195.118359 C191.878516,197.970313 178.53125,198.711719 168.123438,198.586328 L168.123438,130.078125 C168.123438,125.763281 164.625781,122.265625 160.310938,122.265625 L157.644141,122.265625 Z" id="形状"></path>
            </g>
        </g>
    </g>
</svg>