<?xml version="1.0" encoding="UTF-8"?>
<svg width="400px" height="400px" viewBox="0 0 400 400" version="1.1" xmlns="http://www.w3.org/2000/svg" xmlns:xlink="http://www.w3.org/1999/xlink">
    <title>logo</title>
    <g id="AntDesign-Pro-4.0" stroke="none" stroke-width="1" fill="none" fill-rule="evenodd">
        <g id="haha" transform="translate(-854.000000, -163.000000)">
            <g id="logo" transform="translate(854.000000, 163.000000)">
                <rect id="矩形" fill-rule="nonzero" x="0" y="0" width="400" height="400"></rect>
                <path d="M29.5723047,134.330469 L71.0613281,92.0175781 C71.2308594,91.8445313 71.4386719,91.7132812 71.6675781,91.6347656 L139.186719,68.44375 C139.2625,68.4179688 139.339453,68.3976563 139.417578,68.3839844 C139.497656,68.3695313 139.578516,68.359375 139.660156,68.359375 C139.670703,68.359375 139.681641,68.359375 139.692187,68.359375 L260.342187,68.359375 C260.519922,68.359375 260.696094,68.3898437 260.863672,68.4496094 L326.046484,91.6472656 C326.245312,91.7179687 326.427734,91.8285156 326.582422,91.971875 L372.355078,134.337891 C372.976562,134.913281 373.026953,135.880469 372.467969,136.517187 L203.165625,329.532031 C203.088281,329.620312 203.003516,329.697656 202.913281,329.763672 C202.852344,329.808203 202.789062,329.847656 202.723828,329.882422 C202.274219,330.120703 201.73125,330.123437 201.279297,329.889453 C201.269141,329.883984 201.258984,329.878906 201.248828,329.873047 C201.095312,329.789453 200.953516,329.678125 200.830078,329.538672 L29.5192578,136.463672 C28.9741016,135.849609 28.9973047,134.916797 29.5723047,134.330469 Z M157.644141,98.265625 C153.329297,98.265625 149.831641,101.763281 149.831641,106.078125 L149.831641,173.341016 C149.318359,173.272656 148.837109,173.205078 148.388672,173.139062 C146.921484,172.923828 145.80625,172.727344 145.068359,172.5875 C144.699219,172.517578 144.424609,172.461719 144.247266,172.424609 C144.158594,172.405859 144.094531,172.391797 144.055078,172.383203 L144.014453,172.374219 C144.010547,172.373437 136.988672,170.624609 136.205469,174.034375 C135.421875,177.444531 142.445703,179.19375 142.446875,179.194141 L142.457422,179.196484 L142.479297,179.201172 C142.497266,179.205469 142.521484,179.210547 142.551953,179.217578 C142.612891,179.230859 142.698828,179.249609 142.809375,179.272656 C143.030078,179.319141 143.349609,179.383984 143.764453,179.4625 C144.594141,179.619922 145.805078,179.832422 147.371875,180.0625 C148.112891,180.171094 148.933594,180.283984 149.831641,180.396875 L149.831641,244.272266 C149.831641,248.587109 153.329297,252.084766 157.644141,252.084766 L160.310937,252.084766 C164.625781,252.084766 168.123437,248.587109 168.123437,244.272266 L168.123437,181.584375 C178.923047,181.709766 192.696875,180.934766 208.590625,177.999609 C216.175781,176.598828 222.741016,174.859766 228.403906,172.955078 L228.403906,244.272266 C228.403906,248.587109 231.901953,252.084766 236.216406,252.084766 L238.883594,252.084766 C243.198437,252.084766 246.696094,248.587109 246.696094,244.272266 L246.696094,164.763672 C247.604297,164.226172 248.460937,163.69375 249.267969,163.16875 C251.822266,161.507812 253.871484,159.930859 255.485937,158.541797 L258.337891,175.608594 C258.707422,177.505469 260.733594,178.841797 262.630078,178.472266 C264.526953,178.102734 265.713672,176.520312 265.344141,174.623437 L261.072266,150.623047 C260.703125,148.726172 258.866016,147.488281 256.969141,147.857812 L246.696094,149.858984 L246.696094,106.078125 C246.696094,101.763281 243.198437,98.265625 238.883594,98.265625 L236.216406,98.265625 C231.901953,98.265625 228.403906,101.763281 228.403906,106.078125 L228.403906,153.422266 L226.061328,153.878906 C224.164453,154.248437 222.926562,156.085547 223.296094,157.982031 C223.665234,159.878906 225.502344,161.116797 227.399219,160.747266 L228.403906,160.551562 L228.403906,165.546094 C222.597266,167.638281 215.630078,169.583594 207.319922,171.118359 C191.878516,173.970312 178.53125,174.711719 168.123437,174.586328 L168.123437,106.078125 C168.123437,101.763281 164.625781,98.265625 160.310937,98.265625 L157.644141,98.265625 Z" id="形状" fill="#020202"></path>
            </g>
        </g>
    </g>
</svg>